<?xml version="1.0" standalone="no"?>
<!DOCTYPE svg PUBLIC "-//W3C//DTD SVG 20010904//EN"
 "http://www.w3.org/TR/2001/REC-SVG-20010904/DTD/svg10.dtd">
<svg version="1.0" xmlns="http://www.w3.org/2000/svg"
 width="1080.000000pt" height="1080.000000pt" viewBox="0 0 1080.000000 1080.000000"
 preserveAspectRatio="xMidYMid meet">

<g transform="translate(0.000000,1080.000000) scale(0.100000,-0.100000)"
fill="#000000" stroke="none">
<path d="M5333 9368 c-1 -129 -5 -173 -15 -179 -8 -6 1 -9 25 -9 l37 0 1 108
c0 59 3 124 7 144 l7 37 107 -137 c58 -75 106 -141 106 -146 0 -14 24 -26 52
-26 25 0 25 1 22 72 -2 40 1 121 5 181 6 72 5 107 -2 107 -5 0 -21 3 -34 7
-18 4 -22 3 -16 -6 9 -16 7 -225 -3 -251 -6 -16 -25 3 -106 107 -54 70 -101
135 -104 145 -3 14 -14 18 -46 18 l-41 0 -2 -172z"/>
<path d="M4777 9494 c-14 -14 -7 -35 14 -42 l20 -8 -21 -27 c-18 -22 -19 -27
-6 -27 24 0 53 66 40 88 -12 19 -36 27 -47 16z"/>
<path d="M6830 9202 c-7 -21 -40 -94 -74 -164 l-61 -127 33 -16 c18 -8 31 -11
28 -6 -6 8 48 141 57 141 2 0 43 -18 90 -40 47 -22 95 -40 107 -40 53 0 99 47
100 100 0 63 -20 78 -216 166 l-51 22 -13 -36z m139 -70 c86 -42 100 -59 85
-99 -14 -41 -49 -40 -142 2 l-80 37 20 49 c11 27 26 49 32 48 6 0 44 -17 85
-37z"/>
<path d="M3690 9181 c0 -12 -270 -154 -292 -153 -15 1 -15 -2 -1 -27 l16 -27
61 33 c34 18 64 33 69 33 4 0 38 -62 76 -138 l68 -139 31 16 c25 13 29 19 18
26 -7 6 -43 67 -80 137 l-67 127 61 31 c33 17 65 28 70 25 14 -9 12 1 -5 35
-16 30 -25 38 -25 21z"/>
<path d="M7590 8819 c0 -16 -194 -267 -209 -271 -8 -2 40 -43 105 -93 65 -49
126 -98 136 -107 16 -16 18 -15 32 7 18 27 20 36 7 33 -4 -2 -54 32 -110 75
l-102 78 32 42 c18 23 34 43 35 45 5 8 143 -105 144 -118 0 -10 9 -5 25 15 23
28 24 30 6 37 -23 8 -141 98 -141 107 0 3 15 24 34 45 l33 40 89 -69 c49 -37
96 -76 105 -86 15 -17 17 -16 38 12 20 26 20 29 4 29 -10 0 -73 43 -140 95
-68 52 -123 90 -123 84z"/>
<path d="M2765 8565 c-17 -13 -25 -24 -19 -25 11 0 177 -191 215 -246 14 -21
17 -20 133 76 76 63 124 96 134 93 10 -4 7 4 -8 25 -23 32 -40 41 -40 23 0
-12 -175 -161 -188 -161 -9 0 -168 188 -187 222 -10 16 -12 16 -40 -7z"/>
<path d="M5145 8530 c-148 -13 -293 -35 -455 -72 -155 -35 -398 -112 -420
-134 -8 -8 38 3 105 26 292 99 492 134 919 164 75 6 403 -10 516 -25 169 -21
408 -72 573 -123 79 -24 52 1 -30 28 -145 47 -321 86 -533 117 -158 23 -506
33 -675 19z"/>
<path d="M8230 8250 c-1 -17 -241 -220 -259 -220 -7 0 -2 -12 9 -28 l21 -29
52 48 c29 27 56 49 62 49 5 0 43 -36 85 -80 59 -63 81 -80 103 -80 78 0 130
77 96 143 -7 12 -43 60 -82 107 -93 112 -87 106 -87 90z m130 -233 c0 -28 -28
-57 -56 -57 -16 0 -41 21 -84 72 -33 39 -60 74 -59 77 0 3 18 21 40 38 l41 33
59 -71 c32 -39 59 -80 59 -92z"/>
<path d="M2261 8028 c-14 -18 -20 -33 -14 -36 13 -9 173 -305 173 -320 0 -18
10 -15 29 10 17 21 17 23 -12 65 l-29 44 57 74 c31 41 65 75 74 75 9 -1 33 -7
54 -14 36 -13 38 -13 58 15 20 29 20 29 0 29 -28 0 -322 69 -343 80 -22 13
-19 14 -47 -22z m141 -53 l77 -18 -19 -26 c-10 -14 -31 -41 -47 -59 l-28 -34
-43 76 c-45 82 -48 91 -29 83 6 -2 47 -12 89 -22z"/>
<path d="M8600 7478 c-80 -43 -153 -78 -162 -78 -17 0 -17 -2 -1 -35 9 -19 19
-31 22 -26 8 11 115 71 127 71 6 0 28 -37 49 -81 47 -95 72 -119 127 -119 50
0 98 43 98 88 0 16 -26 81 -57 144 l-58 114 -145 -78z m174 -76 c44 -90 44
-122 3 -136 -40 -15 -56 -1 -104 90 l-42 79 42 22 c23 12 47 22 52 23 6 0 28
-35 49 -78z"/>
<path d="M1871 7395 c-55 -59 -81 -117 -81 -180 0 -58 16 -87 59 -105 45 -18
86 10 138 96 45 72 79 114 94 114 19 0 49 -41 49 -68 0 -65 -100 -202 -137
-188 -10 4 -7 -4 7 -24 l22 -30 32 27 c104 89 146 226 90 292 -20 25 -34 31
-64 31 -44 0 -76 -30 -128 -122 -44 -77 -65 -94 -97 -80 -53 24 -24 135 53
204 38 34 39 36 22 57 l-16 22 -43 -46z"/>
<path d="M7954 7293 c308 -410 510 -834 621 -1303 15 -63 29 -117 32 -120 18
-17 -46 266 -93 415 -80 249 -202 510 -342 729 -86 134 -230 326 -245 326 -5
0 7 -21 27 -47z"/>
<path d="M9069 6772 c-5 -13 -306 -95 -324 -88 -8 3 1 -51 28 -157 23 -89 42
-163 43 -165 1 -2 13 0 28 4 20 5 24 10 17 23 -11 21 -61 213 -61 233 0 18 88
44 101 31 11 -12 49 -165 43 -175 -4 -7 43 -1 53 6 1 1 -9 39 -23 86 -13 46
-24 89 -24 96 0 11 97 41 104 33 6 -8 60 -225 60 -241 0 -19 8 -21 44 -11 13
3 19 9 14 12 -5 3 -26 71 -47 151 -38 149 -49 182 -56 162z"/>
<path d="M2375 6218 c-32 -94 -71 -335 -86 -531 -41 -532 60 -1062 297 -1555
51 -105 68 -132 78 -123 7 6 15 10 17 8 2 -1 3 0 1 2 -1 3 5 15 13 28 15 22
14 26 -3 51 -10 15 -42 68 -70 119 -144 256 -234 523 -294 871 -20 111 -23
162 -23 412 0 301 9 388 59 623 12 59 21 107 19 107 -2 0 -6 -6 -8 -12z"/>
<path d="M5645 6020 c3 -5 11 -10 16 -10 6 0 7 5 4 10 -3 6 -11 10 -16 10 -6
0 -7 -4 -4 -10z"/>
<path d="M6025 6010 c3 -5 11 -10 16 -10 6 0 7 5 4 10 -3 6 -11 10 -16 10 -6
0 -7 -4 -4 -10z"/>
<path d="M5620 5978 c-8 -13 -15 -27 -16 -33 0 -5 -2 -17 -3 -25 -1 -10 -6 -7
-15 9 -9 16 -16 20 -20 12 -6 -9 -11 -9 -21 -1 -9 8 -15 8 -20 0 -3 -5 0 -10
8 -10 17 0 30 -27 17 -35 -5 -3 -12 0 -15 6 -4 5 -14 8 -22 5 -8 -3 -11 -2 -8
3 3 5 0 13 -6 16 -7 5 -9 -3 -7 -21 3 -25 7 -29 36 -29 17 0 32 -3 32 -7 0
-11 -54 -10 -65 1 -6 6 -17 4 -29 -5 -11 -7 -16 -17 -12 -21 4 -4 11 -1 16 7
7 11 11 8 20 -15 13 -35 10 -67 -8 -73 -11 -3 -12 0 -2 18 10 18 9 24 -1 31
-8 5 -20 6 -28 4 -8 -3 -18 0 -23 7 -6 11 -10 10 -17 0 -12 -20 -18 -19 -36 3
-9 11 -14 14 -10 8 7 -15 -11 -18 -20 -3 -3 5 -12 7 -20 3 -8 -3 -15 0 -15 6
0 6 7 11 15 11 8 0 14 3 13 8 -2 4 2 7 7 7 6 0 9 -2 8 -5 -1 -3 9 -10 22 -16
20 -10 27 -8 40 6 15 16 14 17 -10 15 -16 -2 -30 4 -39 17 -9 12 -16 15 -21 9
-10 -17 -35 -13 -36 7 0 13 -2 14 -6 2 -3 -8 -11 -18 -17 -22 -8 -5 -7 -8 2
-8 14 0 16 -19 3 -39 -7 -12 -13 -12 -24 -3 -7 7 -17 9 -20 5 -4 -3 3 -11 15
-17 29 -15 35 -35 9 -33 -12 1 -21 6 -21 11 0 5 -6 1 -14 -9 -8 -11 -19 -16
-30 -12 -11 4 -15 3 -11 -4 4 -6 24 -7 51 -3 31 4 44 3 44 -5 0 -7 -4 -10 -9
-6 -15 9 -44 -26 -32 -38 6 -6 11 -15 11 -21 0 -6 -5 -5 -12 2 -7 7 -21 12
-32 12 -18 0 -17 -3 9 -20 33 -22 30 -25 -10 -10 -21 8 -26 7 -22 -2 2 -7 10
-12 16 -10 6 1 11 -7 11 -18 0 -11 -3 -19 -7 -18 -5 2 -8 -1 -8 -7 0 -5 4 -9
8 -7 5 1 7 -3 5 -10 -3 -7 -10 -13 -15 -13 -6 0 -15 -3 -19 -7 -4 -5 -2 -8 5
-8 7 0 9 -5 6 -10 -3 -6 -3 -20 0 -31 5 -15 10 -18 18 -10 22 22 30 10 9 -12
-27 -29 -29 -46 -3 -22 19 16 20 16 20 -1 0 -11 1 -28 3 -39 3 -21 -11 -24
-45 -10 -13 6 -16 3 -11 -9 3 -8 11 -14 16 -13 6 1 13 -4 16 -12 2 -8 1 -11
-4 -9 -5 3 -18 2 -29 -3 -17 -6 -17 -8 -2 -8 9 -1 20 -1 23 0 4 0 11 -5 15
-13 6 -8 12 -9 17 -3 10 14 35 18 30 5 -2 -7 -7 -10 -11 -8 -5 2 -13 -5 -18
-14 -12 -21 -31 -24 -23 -5 3 8 -2 14 -11 14 -9 0 -14 -6 -11 -14 3 -7 -2 -13
-12 -14 -10 0 -12 -3 -4 -6 7 -2 26 -18 43 -35 28 -29 29 -31 13 -49 -14 -16
-14 -19 -2 -19 8 0 19 12 25 28 9 22 11 23 9 5 -1 -12 -5 -25 -8 -29 -4 -3 -4
-12 -1 -20 3 -8 1 -14 -5 -12 -5 2 -10 -1 -11 -7 -1 -5 4 -10 11 -10 16 0 21
-22 7 -31 -8 -5 -10 -3 -4 7 8 12 6 12 -8 0 -15 -12 -14 -37 1 -27 4 2 12 -1
18 -8 8 -9 7 -16 -4 -26 -14 -13 -15 -12 -8 5 6 16 5 17 -5 8 -10 -10 -9 -17
7 -34 15 -18 16 -21 3 -17 -9 4 -16 1 -16 -7 0 -7 5 -11 12 -9 6 3 11 -5 11
-16 0 -14 -5 -19 -15 -15 -11 4 -11 3 -2 -9 7 -8 10 -19 7 -25 -4 -5 2 -12 11
-14 13 -3 10 -5 -7 -6 -19 -1 -22 -3 -11 -10 12 -8 13 -14 3 -36 -16 -35 -15
-43 2 -19 8 10 18 16 22 11 4 -4 2 -7 -4 -7 -6 0 -14 -15 -17 -32 -4 -18 -13
-36 -19 -40 -8 -5 -7 -8 2 -8 7 0 10 -4 7 -10 -4 -6 1 -7 11 -3 10 4 13 8 7
10 -15 5 -5 33 11 33 6 0 17 -9 24 -20 7 -11 19 -20 27 -20 8 0 15 -8 15 -19
0 -20 -23 -45 -32 -35 -3 3 -9 1 -12 -5 -4 -6 2 -8 16 -6 12 3 26 -1 31 -8 6
-8 7 -4 4 11 -3 12 -2 23 1 23 4 1 27 2 50 4 30 1 39 -1 28 -7 -9 -5 -21 -6
-26 -3 -6 3 -10 -1 -10 -9 0 -9 -5 -16 -12 -16 -6 0 -8 -3 -5 -6 4 -4 13 -1
22 6 8 7 21 10 29 7 8 -3 17 -1 20 6 3 7 3 2 0 -11 -4 -16 0 -28 13 -38 17
-15 17 -15 -5 -10 -22 4 -23 3 -8 -13 9 -10 16 -28 17 -42 0 -17 2 -19 7 -9 4
8 21 16 37 18 29 3 29 3 10 -13 -20 -16 -20 -16 4 -9 15 4 27 1 32 -7 8 -12
11 -11 19 1 7 11 10 11 10 2 0 -7 5 -10 10 -7 6 4 18 1 26 -6 9 -7 23 -14 31
-15 20 -3 28 -12 19 -21 -4 -4 -11 -2 -15 6 -6 10 -10 9 -15 -5 -3 -9 -4 -19
-1 -22 3 -3 5 0 5 6 0 7 10 8 32 1 47 -13 61 -11 54 7 -3 8 -2 12 4 9 6 -3 10
-13 10 -21 0 -8 9 -14 20 -14 11 0 19 -6 17 -12 -1 -7 5 -11 13 -10 8 2 36 5
62 7 25 2 52 6 59 10 8 6 10 4 4 -5 -6 -10 -4 -12 8 -7 11 4 14 2 11 -7 -3 -7
3 -17 13 -21 25 -10 83 -12 83 -2 0 5 -17 7 -37 5 -22 -2 -38 2 -41 10 -5 16
70 16 86 0 6 -6 15 -8 19 -4 4 4 2 11 -6 15 -10 6 -9 10 4 14 10 4 14 3 9 -4
-4 -7 1 -9 15 -4 16 5 20 3 15 -8 -3 -8 -1 -18 5 -22 6 -3 9 0 6 7 -3 8 7 24
21 37 19 17 25 19 21 7 -5 -13 0 -16 23 -16 17 0 30 -5 30 -11 0 -8 5 -7 16 2
12 10 17 10 23 0 6 -10 10 -9 15 4 4 11 12 15 24 10 13 -5 14 -3 5 6 -6 6 -17
8 -24 3 -17 -10 -59 -12 -65 -2 -3 5 -2 7 3 6 21 -6 91 14 97 27 3 8 12 12 19
9 8 -3 27 6 43 19 19 15 41 23 64 23 23 -1 40 5 49 18 11 15 15 15 23 5 7 -10
8 -8 3 8 -5 18 -1 22 25 28 16 4 30 11 30 16 0 11 -22 8 -31 -5 -4 -5 -13 -6
-20 -3 -9 3 -3 10 16 18 17 8 30 21 30 29 0 8 6 14 13 12 7 -1 20 4 28 13 9 8
11 15 5 15 -6 0 -11 4 -11 10 0 5 7 7 15 4 17 -7 21 11 5 21 -5 3 -10 11 -10
16 0 6 4 8 9 5 5 -3 21 0 35 8 21 10 23 15 11 19 -8 4 -15 14 -15 22 0 9 5 13
10 10 6 -3 10 -1 10 4 0 6 5 11 10 11 6 0 10 -7 10 -17 0 -21 9 -12 15 15 4
20 -9 24 -33 8 -23 -14 -24 2 -2 24 16 16 25 19 33 11 14 -14 27 -14 27 -1 0
6 -7 10 -15 10 -8 0 -15 9 -15 20 0 13 7 20 20 20 11 0 20 4 20 9 0 5 -12 6
-27 2 -17 -5 -27 -14 -25 -23 1 -8 -9 -25 -23 -38 -14 -13 -25 -19 -25 -13 0
6 7 16 15 23 16 13 10 34 -7 24 -6 -4 -8 -1 -6 7 3 8 10 13 16 12 5 -1 16 4
23 13 10 12 10 17 -1 27 -10 10 -12 9 -7 -5 4 -12 2 -15 -7 -12 -8 3 -17 1
-21 -5 -3 -6 -11 -11 -17 -11 -6 0 -1 11 12 26 18 19 31 23 49 19 22 -6 23 -4
11 10 -7 9 -19 14 -27 11 -7 -3 -13 0 -13 7 0 8 -4 7 -11 -3 -9 -13 -10 -13
-7 0 3 8 18 15 34 16 46 2 50 4 35 13 -7 5 -9 11 -4 14 4 3 17 -1 28 -9 10 -8
13 -14 6 -14 -7 0 -9 -4 -6 -10 4 -6 11 -5 19 3 11 10 7 16 -23 34 -20 12 -31
23 -26 23 6 0 2 5 -7 11 -10 5 -18 15 -18 21 0 6 3 8 7 5 3 -4 12 -2 20 4 9 9
17 8 27 0 16 -13 23 -6 22 24 -1 11 2 22 6 25 4 3 -1 11 -11 17 -20 13 -24 1
-8 -24 13 -21 -2 -34 -24 -22 -15 8 -25 7 -37 -3 -30 -23 -46 -57 -19 -42 6 4
3 -2 -7 -14 -21 -24 -32 -29 -20 -10 5 7 9 21 9 32 1 11 16 32 34 48 29 26 27
33 -6 29 -19 -3 -15 13 6 26 15 9 21 9 23 1 3 -7 7 -5 11 6 4 9 3 15 -2 12
-16 -10 -23 28 -7 40 9 6 13 14 9 17 -3 4 -12 2 -19 -4 -14 -12 -34 -4 -34 13
0 5 6 8 14 5 8 -3 20 1 28 10 12 15 10 16 -16 9 -29 -7 -30 -7 -10 11 11 10
15 15 10 11 -16 -13 -29 -9 -23 6 3 8 -1 20 -9 26 -8 7 -14 17 -14 23 0 5 8 3
18 -6 24 -22 31 -21 25 3 -3 11 -9 18 -13 15 -5 -3 -11 -1 -15 4 -3 6 -13 7
-23 4 -12 -5 -11 1 7 20 17 19 20 27 10 27 -12 0 -11 2 1 10 9 6 10 10 3 10
-6 0 -15 -4 -18 -10 -3 -5 -11 -10 -17 -10 -7 0 -6 6 2 15 9 11 9 15 1 15 -6
0 -14 -7 -17 -15 -4 -8 -10 -15 -15 -15 -5 0 -2 12 7 26 14 20 22 24 43 19 21
-5 23 -4 14 6 -7 7 -28 12 -48 12 -21 0 -34 5 -32 11 2 6 11 11 20 11 9 0 22
6 29 14 11 12 10 13 -2 9 -10 -4 -20 3 -27 18 -9 19 -7 26 8 40 15 14 17 19 7
26 -7 4 -21 5 -32 2 -10 -4 -16 -2 -13 3 4 6 -5 10 -18 9 -26 -1 -35 -18 -14
-25 7 -2 9 1 5 8 -4 6 -3 11 2 11 6 0 13 -7 16 -16 5 -13 9 -14 21 -4 19 15
33 4 17 -12 -15 -15 -110 -18 -116 -3 -2 6 5 17 15 23 26 17 24 32 -4 32 -14
0 -24 6 -24 15 0 11 4 12 13 4 8 -7 14 -7 19 1 5 8 11 8 21 -1 8 -6 14 -7 14
-2 0 5 -12 15 -26 21 -14 7 -23 8 -19 2 3 -6 0 -7 -9 -4 -14 5 -14 8 -1 21 19
19 19 29 -1 37 -8 3 -12 2 -9 -4 3 -6 -1 -10 -9 -10 -9 0 -16 4 -16 9 0 5 -7
12 -16 15 -9 3 -12 2 -9 -5 4 -6 -1 -16 -11 -23 -12 -9 -14 -15 -6 -20 22 -14
12 -27 -10 -15 -33 17 -33 18 -13 33 15 11 17 17 7 28 -6 8 -8 19 -4 24 4 4
-1 2 -10 -5 -19 -14 -25 -26 -8 -16 6 3 10 0 10 -8 0 -26 -14 -28 -32 -5 -15
19 -18 20 -18 6 0 -10 4 -18 10 -18 5 0 12 -11 16 -25 3 -14 11 -25 17 -25 6
0 8 -2 5 -5 -10 -10 -37 7 -32 20 3 7 1 16 -5 20 -6 3 -11 -2 -11 -12 0 -11
-3 -14 -8 -7 -4 7 -16 13 -27 15 -16 4 -19 11 -17 36 2 17 -3 37 -11 44 -7 7
-11 23 -9 36 2 13 -1 23 -7 23 -6 0 -11 -8 -11 -17 0 -15 -4 -13 -20 7 -10 14
-22 22 -26 18 -4 -4 -1 -14 6 -23 9 -11 9 -15 1 -15 -6 0 -14 7 -18 16 -4 10
-13 14 -29 10 -24 -6 -42 8 -24 19 5 3 10 11 10 16 0 5 -10 0 -22 -11 -21 -19
-24 -19 -35 -4 -6 9 -16 13 -22 9 -6 -3 -11 1 -11 10 0 18 -40 12 -77 -11 -13
-8 -23 -12 -23 -9 0 2 -11 0 -25 -5 -16 -6 -25 -6 -25 0 0 6 -9 10 -21 10 -12
0 -18 -4 -13 -11 4 -7 1 -10 -7 -7 -8 3 -12 14 -10 24 3 18 2 18 -15 3 -28
-24 -49 -34 -40 -21 10 16 -7 15 -23 0 -11 -11 -12 -9 -7 8 5 17 2 20 -24 18
-17 -1 -33 2 -36 7 -9 16 -20 10 -20 -11 0 -11 6 -19 12 -17 7 1 12 -2 11 -8
-1 -5 -6 -9 -12 -7 -5 2 -18 4 -27 5 -12 1 -14 5 -7 14 6 7 9 17 7 23 -2 6
-10 0 -18 -12z m365 -18 c-4 -6 -10 -8 -15 -5 -5 3 -11 1 -15 -5 -3 -5 -17
-10 -31 -10 -15 0 -23 4 -19 10 4 6 11 8 16 5 5 -4 17 -1 26 4 23 13 46 14 38
1z m-201 -35 c3 -8 1 -15 -4 -15 -6 0 -10 7 -10 15 0 8 2 15 4 15 2 0 6 -7 10
-15z m91 5 c3 -5 1 -10 -4 -10 -6 0 -11 5 -11 10 0 6 2 10 4 10 3 0 8 -4 11
-10z m-35 -4 c0 -2 -7 -7 -16 -10 -8 -3 -12 -2 -9 4 6 10 25 14 25 6z m-160
-16 c0 -5 -8 -10 -17 -10 -15 0 -16 2 -3 10 19 12 20 12 20 0z m-360 -94 c0
-3 -4 -8 -10 -11 -5 -3 -10 -1 -10 4 0 6 5 11 10 11 6 0 10 -2 10 -4z m148
-29 c-7 -7 -28 -12 -45 -11 -57 3 -59 3 -44 13 8 5 27 8 42 6 16 -2 31 0 34 6
4 5 11 7 16 4 5 -4 4 -11 -3 -18z m795 -27 c-7 -27 -10 -25 -15 10 -3 22 -2
27 8 19 6 -5 10 -19 7 -29z m-761 -54 c-7 -13 -21 16 -14 32 4 13 7 12 12 -4
4 -10 5 -23 2 -28z m973 24 c-3 -5 -10 -10 -16 -10 -5 0 -9 5 -9 10 0 6 7 10
16 10 8 0 12 -4 9 -10z m-128 -6 c-3 -3 -12 -4 -19 -1 -8 3 -5 6 6 6 11 1 17
-2 13 -5z m123 -59 c0 -2 -9 -3 -19 -2 -11 0 -18 5 -15 9 4 6 34 0 34 -7z m27
-15 c2 -23 -13 -35 -23 -19 -5 8 -3 9 6 4 10 -6 12 -4 7 7 -3 9 -3 19 0 22 9
8 9 8 10 -14z m43 0 c0 -5 -4 -10 -10 -10 -5 0 -10 5 -10 10 0 6 5 10 10 10 6
0 10 -4 10 -10z m30 0 c0 -5 -4 -10 -10 -10 -5 0 -10 5 -10 10 0 6 5 10 10 10
6 0 10 -4 10 -10z m-1346 -84 c-21 -15 -30 -14 -19 3 3 6 14 11 23 11 13 0 13
-2 -4 -14z m1386 -50 c0 -3 -4 -8 -10 -11 -5 -3 -10 -1 -10 4 0 6 5 11 10 11
6 0 10 -2 10 -4z m-30 -66 c0 -5 -5 -10 -11 -10 -5 0 -7 5 -4 10 3 6 8 10 11
10 2 0 4 -4 4 -10z m46 -58 c1 -36 -1 -39 -12 -24 -8 11 -9 21 -2 29 15 18 0
37 -18 22 -9 -7 -14 -8 -14 -1 0 12 20 22 35 18 6 -2 10 -21 11 -44z m-1374
16 c-7 -7 -12 -8 -12 -2 0 14 12 26 19 19 2 -3 -1 -11 -7 -17z m-5 -93 c-5
-14 -29 -13 -34 2 -3 7 4 11 16 10 12 -1 20 -6 18 -12z m1413 5 c0 -5 -4 -10
-10 -10 -5 0 -10 5 -10 10 0 6 5 10 10 10 6 0 10 -4 10 -10z m-10 -24 c0 -3
-4 -8 -10 -11 -5 -3 -10 -1 -10 4 0 6 5 11 10 11 6 0 10 -2 10 -4z m0 -60 c0
-3 -4 -8 -10 -11 -5 -3 -10 -1 -10 4 0 6 5 11 10 11 6 0 10 -2 10 -4z m27
-116 c-1 -14 -4 -16 -14 -9 -7 6 -17 8 -23 4 -15 -9 -12 1 6 19 19 19 33 13
31 -14z m-72 -30 c-10 -11 -20 -18 -23 -15 -7 6 18 35 31 35 5 0 2 -9 -8 -20z
m-35 -60 c0 -5 -5 -10 -11 -10 -5 0 -7 5 -4 10 3 6 8 10 11 10 2 0 4 -4 4 -10z
m-1233 -56 c-3 -3 -12 -4 -19 -1 -8 3 -5 6 6 6 11 1 17 -2 13 -5z m9 -34 c0
-12 -4 -16 -9 -11 -5 5 -6 14 -3 20 10 15 12 14 12 -9z m1270 -27 c-7 -7 -26
7 -26 19 0 6 6 6 15 -2 9 -7 13 -15 11 -17z m-1301 3 c7 3 16 0 20 -5 3 -6 12
-8 18 -5 8 4 7 2 -1 -7 -11 -12 -14 -12 -21 0 -10 16 -31 6 -31 -14 0 -8 6
-12 14 -9 8 3 17 0 21 -5 3 -6 11 -8 17 -5 7 4 8 2 4 -5 -4 -6 -11 -9 -16 -6
-4 3 -13 -2 -20 -10 -10 -12 -9 -15 7 -15 21 0 43 -18 43 -34 0 -6 -5 -3 -11
7 -5 9 -18 17 -28 17 -9 0 -26 12 -38 28 -17 23 -18 30 -7 40 7 7 12 18 10 25
-1 6 -1 9 1 5 2 -4 10 -5 18 -2z m1305 -26 c0 -5 -4 -10 -10 -10 -5 0 -10 5
-10 10 0 6 5 10 10 10 6 0 10 -4 10 -10z m10 -29 c0 -18 -18 -21 -30 -6 -10
13 -9 15 9 15 11 0 21 -4 21 -9z m-70 -21 c0 -5 -4 -10 -10 -10 -5 0 -10 5
-10 10 0 6 5 10 10 10 6 0 10 -4 10 -10z m-1127 -35 c-3 -9 -8 -14 -10 -11 -3
3 -2 9 2 15 9 16 15 13 8 -4z m1132 -33 c-4 -4 -13 2 -21 12 -21 30 -17 39 7
15 11 -11 18 -24 14 -27z m-35 -12 c0 -5 -2 -10 -4 -10 -3 0 -8 5 -11 10 -3 6
-1 10 4 10 6 0 11 -4 11 -10z m-50 -60 c0 -5 -4 -10 -10 -10 -5 0 -10 5 -10
10 0 6 5 10 10 10 6 0 10 -4 10 -10z m0 -30 c0 -5 -4 -10 -10 -10 -5 0 -10 5
-10 10 0 6 5 10 10 10 6 0 10 -4 10 -10z m-660 -134 c0 -2 -9 -6 -20 -9 -11
-3 -18 -1 -14 4 5 9 34 13 34 5z"/>
<path d="M5296 4858 c3 -4 11 -5 19 -1 21 7 19 12 -4 10 -11 0 -18 -5 -15 -9z"/>
<path d="M6060 5984 c0 -8 5 -12 10 -9 6 4 8 11 5 16 -9 14 -15 11 -15 -7z"/>
<path d="M5880 5980 c0 -5 5 -10 11 -10 5 0 7 5 4 10 -3 6 -8 10 -11 10 -2 0
-4 -4 -4 -10z"/>
<path d="M5560 5970 c0 -5 7 -10 16 -10 8 0 12 5 9 10 -3 6 -10 10 -16 10 -5
0 -9 -4 -9 -10z"/>
<path d="M6435 5930 c-3 -5 -20 -10 -37 -10 -36 0 -32 -10 5 -14 15 -2 29 4
36 16 6 10 9 18 7 18 -3 0 -8 -4 -11 -10z"/>
<path d="M8880 5886 l0 -36 80 0 80 0 0 -68 0 -67 -67 -43 c-49 -31 -69 -39
-75 -29 -4 7 -8 -8 -8 -36 l0 -48 76 52 c42 28 77 49 79 47 1 -1 10 -17 19
-35 23 -46 74 -61 123 -36 21 10 43 29 50 43 13 26 17 187 7 250 l-6 35 -166
-6 c-104 -4 -172 -3 -179 4 -10 7 -13 1 -13 -27z m322 -103 c2 -138 -3 -153
-58 -153 -46 0 -54 20 -54 134 l0 96 55 0 55 0 2 -77z"/>
<path d="M6260 5880 c0 -5 5 -10 10 -10 6 0 10 5 10 10 0 6 -4 10 -10 10 -5 0
-10 -4 -10 -10z"/>
<path d="M6417 5874 c6 -15 65 -25 78 -13 5 5 0 9 -13 9 -12 0 -22 3 -22 8 0
4 -11 7 -24 7 -13 0 -22 -5 -19 -11z"/>
<path d="M6262 5839 c2 -7 10 -15 17 -17 8 -3 12 1 9 9 -2 7 -10 15 -17 17 -8
3 -12 -1 -9 -9z"/>
<path d="M6526 5772 c-3 -4 4 -9 15 -9 23 -2 25 3 4 10 -8 4 -16 3 -19 -1z"/>
<path d="M5195 5730 c-19 -8 -19 -9 2 -9 12 -1 25 4 28 9 7 12 -2 12 -30 0z"/>
<path d="M6476 5713 c-11 -11 -7 -20 9 -20 8 0 15 4 15 8 0 11 -16 20 -24 12z"/>
<path d="M6625 5629 c-4 -6 -5 -12 -2 -15 2 -3 7 2 10 11 7 17 1 20 -8 4z"/>
<path d="M6660 5630 c-9 -6 -10 -10 -3 -10 6 0 15 5 18 10 8 12 4 12 -15 0z"/>
<path d="M5153 5575 c0 -8 4 -12 9 -9 5 3 6 10 3 15 -9 13 -12 11 -12 -6z"/>
<path d="M6658 5533 c7 -3 16 -2 19 1 4 3 -2 6 -13 5 -11 0 -14 -3 -6 -6z"/>
<path d="M6635 5500 c-3 -5 1 -10 10 -10 9 0 13 5 10 10 -3 6 -8 10 -10 10 -2
0 -7 -4 -10 -10z"/>
<path d="M5215 5460 c3 -5 11 -10 16 -10 6 0 7 5 4 10 -3 6 -11 10 -16 10 -6
0 -7 -4 -4 -10z"/>
<path d="M5155 5430 c3 -5 8 -10 11 -10 2 0 4 5 4 10 0 6 -5 10 -11 10 -5 0
-7 -4 -4 -10z"/>
<path d="M6710 5386 c0 -2 7 -7 16 -10 8 -3 12 -2 9 4 -6 10 -25 14 -25 6z"/>
<path d="M5181 5287 c2 -1 13 -9 24 -17 19 -14 19 -14 6 3 -7 9 -18 17 -24 17
-6 0 -8 -1 -6 -3z"/>
<path d="M5167 5246 c-4 -10 -1 -13 9 -9 15 6 19 23 5 23 -5 0 -11 -7 -14 -14z"/>
<path d="M5187 5213 c-8 -8 12 -33 26 -33 6 0 2 7 -9 16 -17 14 -17 15 -1 10
11 -3 16 -2 12 4 -7 12 -19 13 -28 3z"/>
<path d="M6763 5205 c0 -8 4 -12 9 -9 5 3 6 10 3 15 -9 13 -12 11 -12 -6z"/>
<path d="M6721 5161 c-8 -5 -9 -11 -3 -15 5 -3 12 1 16 9 6 17 6 18 -13 6z"/>
<path d="M5202 5151 c-11 -7 -11 -9 0 -14 9 -3 15 1 15 9 0 8 -1 14 -1 14 -1
0 -7 -4 -14 -9z"/>
<path d="M5195 5111 c-6 -11 13 -26 22 -17 4 3 1 6 -6 6 -7 0 -9 5 -6 10 3 6
4 10 1 10 -3 0 -7 -4 -11 -9z"/>
<path d="M6718 5053 c7 -3 16 -2 19 1 4 3 -2 6 -13 5 -11 0 -14 -3 -6 -6z"/>
<path d="M6625 4821 c-3 -5 -1 -12 5 -16 5 -3 10 1 10 9 0 18 -6 21 -15 7z"/>
<path d="M5250 4775 c0 -8 2 -15 4 -15 2 0 6 7 10 15 3 8 1 15 -4 15 -6 0 -10
-7 -10 -15z"/>
<path d="M5306 4722 c-2 -4 4 -8 14 -8 10 0 16 4 14 8 -3 4 -9 8 -14 8 -5 0
-11 -4 -14 -8z"/>
<path d="M5375 4710 c3 -5 8 -10 11 -10 2 0 4 5 4 10 0 6 -5 10 -11 10 -5 0
-7 -4 -4 -10z"/>
<path d="M5341 4684 c0 -11 3 -14 6 -6 3 7 2 16 -1 19 -3 4 -6 -2 -5 -13z"/>
<path d="M6381 4610 c-1 -15 -58 -43 -71 -35 -4 2 -7 -2 -7 -10 0 -19 2 -19
30 0 13 8 34 16 47 18 15 3 26 11 27 23 3 17 2 17 -6 -1 l-8 -20 -5 20 c-4 12
-6 14 -7 5z"/>
<path d="M5602 4586 c7 -8 16 -12 21 -9 11 7 -2 23 -19 23 -12 0 -12 -2 -2
-14z"/>
<path d="M6120 4516 c0 -15 24 -28 34 -19 3 4 6 11 6 17 0 6 -5 4 -10 -4 -8
-13 -10 -12 -10 3 0 9 -4 17 -10 17 -5 0 -10 -6 -10 -14z"/>
<path d="M5863 4510 c2 -8 12 -14 21 -12 10 2 25 -3 33 -10 15 -12 15 -11 2
10 -15 24 -39 30 -39 10 0 -9 -4 -8 -11 2 -9 13 -10 13 -6 0z"/>
<path d="M5820 4499 c0 -5 5 -7 10 -4 6 3 10 8 10 11 0 2 -4 4 -10 4 -5 0 -10
-5 -10 -11z"/>
<path d="M5301 3379 c-136 -16 -294 -61 -581 -164 -157 -57 -301 -106 -320
-110 -19 -5 -30 -10 -24 -12 15 -5 194 53 399 129 363 134 641 176 885 133
106 -19 147 -32 344 -112 87 -35 160 -63 162 -61 7 8 -315 139 -397 162 -156
44 -297 55 -468 35z"/>
<path d="M5354 3309 c-176 -16 -376 -66 -644 -163 -149 -53 -148 -61 1 -11
159 54 362 112 479 136 86 18 139 22 290 23 214 1 279 -12 509 -96 74 -26 135
-47 137 -45 7 7 -263 106 -342 126 -147 37 -260 45 -430 30z"/>
<path d="M5435 3243 c-179 -11 -354 -46 -610 -123 -185 -55 -347 -97 -440
-114 -44 -8 -67 -15 -52 -15 49 -2 213 36 448 103 404 114 575 143 794 133
150 -7 240 -25 430 -87 82 -27 150 -48 152 -46 6 6 -259 95 -342 116 -82 20
-252 41 -302 38 -15 -1 -50 -3 -78 -5z"/>
<path d="M5390 3170 c-133 -12 -255 -37 -525 -105 -241 -61 -422 -101 -495
-108 -34 -4 -33 -4 6 -5 53 -2 230 34 503 102 283 71 433 96 616 103 185 7
302 -10 518 -73 83 -24 155 -43 159 -42 12 4 -260 87 -341 103 -151 32 -280
39 -441 25z"/>
<path d="M6150 3142 c8 -5 26 -13 40 -16 17 -5 20 -4 10 2 -8 5 -26 13 -40 16
-17 5 -20 4 -10 -2z"/>
<path d="M5440 3104 c-135 -13 -299 -41 -495 -84 -428 -94 -583 -116 -737
-101 -51 5 -115 14 -142 21 -27 6 -51 9 -53 6 -7 -6 91 -26 187 -37 148 -18
341 6 705 86 507 112 740 123 1052 49 58 -13 107 -23 109 -21 6 6 -149 47
-240 63 -83 15 -305 25 -386 18z"/>
<path d="M4520 3085 c-19 -7 -28 -13 -20 -13 8 0 31 6 50 13 19 7 28 13 20 13
-8 0 -31 -6 -50 -13z"/>
<path d="M4338 3083 c7 -3 16 -2 19 1 4 3 -2 6 -13 5 -11 0 -14 -3 -6 -6z"/>
<path d="M4283 3073 c9 -2 23 -2 30 0 6 3 -1 5 -18 5 -16 0 -22 -2 -12 -5z"/>
<path d="M4223 3063 c9 -2 23 -2 30 0 6 3 -1 5 -18 5 -16 0 -22 -2 -12 -5z"/>
<path d="M4458 3063 c7 -3 16 -2 19 1 4 3 -2 6 -13 5 -11 0 -14 -3 -6 -6z"/>
<path d="M4083 3053 c15 -2 37 -2 50 0 12 2 0 4 -28 4 -27 0 -38 -2 -22 -4z"/>
<path d="M4408 3053 c6 -2 18 -2 25 0 6 3 1 5 -13 5 -14 0 -19 -2 -12 -5z"/>
<path d="M4358 3043 c6 -2 18 -2 25 0 6 3 1 5 -13 5 -14 0 -19 -2 -12 -5z"/>
<path d="M4308 3033 c6 -2 18 -2 25 0 6 3 1 5 -13 5 -14 0 -19 -2 -12 -5z"/>
<path d="M5470 3033 c-113 -7 -297 -35 -523 -78 -339 -66 -442 -78 -642 -73
-111 3 -158 1 -135 -5 19 -5 109 -9 200 -9 174 0 266 12 575 72 319 62 424 74
660 74 173 1 239 -3 309 -17 48 -10 90 -16 92 -14 8 7 -148 37 -246 47 -91 9
-172 10 -290 3z"/>
<path d="M4243 3023 c9 -2 23 -2 30 0 6 3 -1 5 -18 5 -16 0 -22 -2 -12 -5z"/>
<path d="M4068 2993 c7 -3 16 -2 19 1 4 3 -2 6 -13 5 -11 0 -14 -3 -6 -6z"/>
<path d="M4158 2983 c29 -2 74 -2 100 0 26 2 2 3 -53 3 -55 0 -76 -1 -47 -3z"/>
<path d="M6040 2970 c14 -4 34 -8 45 -8 16 0 15 2 -5 8 -14 4 -34 8 -45 8 -16
0 -15 -2 5 -8z"/>
<path d="M5460 2960 c-108 -8 -225 -24 -623 -85 -222 -34 -426 -47 -547 -35
-112 11 -127 11 -80 -1 19 -5 94 -11 165 -15 148 -7 284 6 643 62 122 19 282
41 355 49 155 17 404 19 512 4 42 -6 79 -8 81 -6 9 8 -150 26 -271 31 -66 2
-172 1 -235 -4z"/>
<path d="M4103 2953 c9 -2 25 -2 35 0 9 3 1 5 -18 5 -19 0 -27 -2 -17 -5z"/>
<path d="M4203 2943 c26 -2 67 -2 90 0 23 2 2 3 -48 3 -49 0 -68 -1 -42 -3z"/>
<path d="M5998 2923 c6 -2 18 -2 25 0 6 3 1 5 -13 5 -14 0 -19 -2 -12 -5z"/>
<path d="M6058 2913 c7 -3 16 -2 19 1 4 3 -2 6 -13 5 -11 0 -14 -3 -6 -6z"/>
<path d="M4068 2903 c7 -3 16 -2 19 1 4 3 -2 6 -13 5 -11 0 -14 -3 -6 -6z"/>
<path d="M4010 2895 c0 -6 129 -45 149 -44 9 0 -20 11 -64 24 -93 28 -85 26
-85 20z"/>
<path d="M4108 2893 c7 -3 16 -2 19 1 4 3 -2 6 -13 5 -11 0 -14 -3 -6 -6z"/>
<path d="M5570 2894 c-154 -10 -338 -28 -544 -54 -328 -42 -516 -54 -662 -40
-128 11 -248 36 -334 69 -30 11 -56 19 -58 17 -6 -6 105 -46 186 -67 198 -51
461 -51 847 1 341 45 519 60 708 60 94 0 168 2 166 4 -6 6 -248 13 -309 10z"/>
<path d="M5928 2873 c12 -2 30 -2 40 0 9 3 -1 5 -23 4 -22 0 -30 -2 -17 -4z"/>
<path d="M3974 2834 c99 -51 252 -99 401 -125 110 -19 164 -23 350 -22 121 0
272 5 335 11 312 30 492 44 670 52 l195 9 -235 -5 c-129 -2 -307 -10 -395 -18
-267 -25 -583 -39 -705 -32 -238 14 -432 56 -595 131 -99 45 -110 44 -21 -1z"/>
<path d="M3980 2856 c42 -26 230 -83 335 -102 169 -29 449 -24 805 15 162 18
394 39 515 46 l220 14 -205 -5 c-128 -3 -316 -17 -500 -36 -247 -27 -336 -32
-545 -32 -276 -1 -369 12 -533 73 -116 43 -120 44 -92 27z"/>
<path d="M3985 2804 c331 -162 700 -202 1365 -148 102 8 257 19 345 24 l160 9
-205 -5 c-113 -2 -295 -11 -405 -19 -574 -42 -940 1 -1260 149 -109 50 -109
43 0 -10z"/>
<path d="M3866 2811 c-7 -11 49 -51 69 -51 6 1 -7 10 -28 21 -22 11 -37 23
-34 25 3 3 47 -18 98 -46 85 -47 94 -54 42 -33 -12 5 -14 3 -8 -7 4 -7 -31 7
-77 32 -82 42 -86 43 -98 25 -6 -10 -10 -20 -8 -22 12 -12 176 -104 256 -144
325 -163 653 -267 997 -315 126 -18 355 -34 355 -25 0 3 -44 9 -97 12 -172 12
-394 46 -558 88 -171 43 -503 155 -492 165 2 2 34 -7 71 -21 161 -60 368 -115
546 -144 125 -20 384 -41 489 -39 64 1 80 3 41 5 -257 10 -565 53 -781 108
-142 36 -350 106 -429 144 -25 11 -36 18 -25 15 11 -4 90 -31 175 -60 257 -88
471 -127 800 -145 135 -7 239 -8 305 -2 98 9 97 10 -90 11 -386 3 -738 59
-1057 168 -127 44 -292 113 -285 121 2 2 38 -13 81 -32 105 -49 288 -108 426
-139 220 -48 323 -58 675 -61 l330 -3 -254 8 c-298 9 -368 14 -556 41 -219 31
-419 84 -602 160 -111 47 -82 44 37 -3 183 -71 408 -120 650 -140 145 -11 707
-4 815 12 43 6 25 7 -60 2 -199 -9 -652 -5 -785 7 -300 28 -541 90 -773 198
-53 26 -96 48 -94 49 2 2 52 -18 113 -45 197 -88 386 -138 610 -161 144 -16
563 -13 813 5 376 26 387 26 -256 5 -518 -16 -807 19 -1103 137 -63 25 -132
54 -154 65 -21 11 -35 14 -30 7 5 -9 2 -10 -9 -6 -10 4 -23 10 -31 13 -8 3
-17 1 -20 -5z m274 -181 c19 -11 31 -19 25 -19 -5 0 -26 8 -45 19 -19 11 -30
19 -25 19 6 0 26 -8 45 -19z m110 -75 c14 -8 21 -14 15 -14 -5 0 -21 6 -35 14
-14 8 -20 14 -15 14 6 0 21 -6 35 -14z"/>
<path d="M5888 2813 c18 -2 45 -2 60 0 15 2 0 4 -33 4 -33 0 -45 -2 -27 -4z"/>
<path d="M3960 2745 c14 -8 30 -14 35 -14 6 0 -1 6 -15 14 -14 8 -29 14 -35
14 -5 0 1 -6 15 -14z"/>
<path d="M5578 2473 c12 -2 30 -2 40 0 9 3 -1 5 -23 4 -22 0 -30 -2 -17 -4z"/>
</g>
</svg>
