<svg xmlns="http://www.w3.org/2000/svg" version="1.0" width="1080.000000pt" height="1080.000000pt" viewBox="0 0 1080.000000 1080.000000" preserveAspectRatio="xMidYMid meet">

<g transform="translate(0.000000,1080.000000) scale(0.100000,-0.100000)" fill="#f0f0e9" stroke="none">
<path d="M5333 9368 c-1 -129 -5 -173 -15 -179 -8 -6 1 -9 25 -9 l37 0 1 108 c0 59 3 124 7 144 l7 38 105 -136 c58 -75 108 -144 111 -153 4 -10 20 -18 40 -19 l34 -2 -3 72 c-2 40 1 121 5 181 7 81 6 107 -3 107 -7 0 -19 3 -28 6 -14 5 -16 -9 -17 -117 0 -68 -3 -132 -7 -141 -5 -13 -30 12 -106 109 -54 70 -101 135 -104 145 -3 14 -14 18 -46 18 l-41 0 -2 -172z" fill="#f0f0e9"/>
<path d="M4774 9486 c-7 -19 3 -36 22 -36 20 0 18 -10 -8 -37 -18 -20 -19 -23 -5 -23 25 0 55 66 41 88 -15 23 -43 27 -50 8z" fill="#f0f0e9"/>
<path d="M6830 9201 c-7 -20 -40 -93 -74 -163 l-61 -127 24 -11 c13 -6 25 -9 27 -8 1 2 16 34 33 71 17 37 32 67 34 67 2 0 44 -18 92 -41 70 -33 95 -40 124 -35 47 7 81 48 81 99 0 61 -25 79 -226 167 l-41 18 -13 -37z m139 -69 c86 -42 100 -59 85 -99 -14 -42 -54 -40 -146 5 l-77 37 21 48 c11 26 26 47 32 46 6 0 44 -17 85 -37z" fill="#f0f0e9"/>
<path d="M3690 9181 c0 -12 -270 -154 -291 -153 -15 1 -15 -2 -3 -28 l15 -29 60 35 c34 19 65 34 70 34 5 0 40 -62 78 -138 l68 -139 31 16 c25 13 29 19 18 26 -7 6 -43 67 -80 137 l-67 127 61 31 c33 17 65 28 70 25 14 -9 12 1 -5 35 -16 30 -25 38 -25 21z" fill="#f0f0e9"/>
<path d="M7590 8819 c0 -16 -193 -267 -209 -271 -8 -2 45 -48 118 -103 72 -55 131 -104 131 -109 0 -5 10 3 21 18 12 15 19 30 15 33 -3 4 -6 3 -6 -1 0 -7 -145 99 -187 137 l-22 20 31 41 c18 23 33 42 34 44 5 8 143 -105 144 -118 0 -10 9 -5 26 14 26 29 26 30 6 37 -23 9 -142 99 -142 108 0 3 15 24 34 45 l33 40 89 -68 c49 -38 96 -77 105 -87 15 -17 17 -16 38 12 20 26 20 29 4 29 -10 0 -73 43 -140 95 -68 52 -123 90 -123 84z" fill="#f0f0e9"/>
<path d="M2765 8565 c-17 -13 -25 -24 -18 -25 11 0 173 -188 213 -246 15 -21 18 -20 134 76 76 63 124 96 134 93 10 -4 7 4 -8 25 -23 32 -40 41 -40 23 0 -11 -174 -161 -187 -161 -9 0 -170 190 -188 221 -10 17 -12 17 -40 -6z" fill="#f0f0e9"/>
<path d="M5146 8530 c-274 -21 -581 -89 -816 -180 -30 -12 -66 -25 -80 -30 -15 -5 -19 -9 -8 -9 9 -1 27 3 40 8 13 5 28 10 33 11 6 1 32 11 59 21 74 30 295 85 446 113 117 21 194 29 475 50 77 6 417 -12 542 -29 139 -18 265 -44 462 -94 163 -42 187 -41 56 2 -151 49 -322 86 -535 118 -156 22 -503 32 -674 19z" fill="#f0f0e9"/>
<path d="M6468 8343 c7 -3 16 -2 19 1 4 3 -2 6 -13 5 -11 0 -14 -3 -6 -6z" fill="#f0f0e9"/>
<path d="M4205 8300 c-3 -5 -1 -10 4 -10 6 0 11 5 11 10 0 6 -2 10 -4 10 -3 0 -8 -4 -11 -10z" fill="#f0f0e9"/>
<path d="M8228 8242 c-5 -15 -246 -212 -257 -212 -7 0 -2 -13 10 -30 18 -24 24 -27 33 -16 6 8 33 33 59 55 l48 41 57 -69 c84 -101 123 -119 182 -84 46 27 63 84 37 129 -17 30 -151 193 -159 193 -3 1 -8 -3 -10 -7z m132 -225 c0 -28 -28 -57 -56 -57 -16 0 -41 21 -84 72 -33 39 -60 74 -59 77 0 3 18 21 40 38 l41 33 59 -71 c32 -39 59 -80 59 -92z" fill="#f0f0e9"/>
<path d="M2261 8028 c-14 -17 -20 -33 -14 -36 10 -8 135 -232 163 -294 l17 -38 24 26 c16 18 20 28 12 31 -7 2 -22 20 -34 39 l-21 35 57 74 c31 41 65 75 74 75 9 -1 33 -7 54 -14 36 -13 38 -13 58 15 20 29 20 29 0 29 -28 0 -322 69 -343 80 -22 13 -19 14 -47 -22z m141 -53 l77 -18 -19 -26 c-10 -14 -32 -41 -47 -60 l-29 -34 -42 77 c-46 85 -48 90 -29 83 6 -2 47 -12 89 -22z" fill="#f0f0e9"/>
<path d="M8600 7478 c-80 -42 -153 -77 -162 -78 -17 0 -17 -2 -1 -35 9 -19 19 -31 22 -27 8 11 116 72 127 72 5 0 25 -32 44 -71 50 -101 78 -129 130 -129 33 0 48 6 71 29 43 43 38 77 -29 206 l-57 111 -145 -78z m174 -76 c44 -90 44 -122 3 -136 -40 -15 -56 -1 -104 90 l-42 79 42 22 c23 12 47 22 52 23 6 0 28 -35 49 -78z" fill="#f0f0e9"/>
<path d="M1871 7395 c-54 -59 -81 -117 -81 -178 0 -59 11 -82 51 -102 56 -30 88 -7 160 111 51 86 69 100 99 84 38 -20 40 -67 4 -138 -29 -58 -89 -116 -111 -108 -9 4 -7 -4 8 -25 l21 -30 31 28 c55 50 68 67 93 121 33 71 32 131 -2 171 -20 25 -34 31 -64 31 -44 0 -79 -34 -130 -124 -43 -75 -64 -92 -95 -78 -50 23 -26 127 45 199 18 18 36 30 41 27 15 -9 10 9 -9 34 l-18 23 -43 -46z" fill="#f0f0e9"/>
<path d="M7902 7358 c19 -16 107 -136 186 -254 198 -297 364 -654 447 -961 19 -71 43 -162 55 -203 17 -66 19 -69 14 -25 -8 72 -58 271 -106 415 -86 264 -205 506 -369 751 -72 108 -217 289 -232 289 -6 0 -4 -6 5 -12z" fill="#f0f0e9"/>
<path d="M9069 6772 c-5 -14 -306 -95 -326 -88 -11 4 -13 2 -9 -9 3 -8 22 -81 43 -162 20 -82 38 -149 39 -151 0 -1 15 1 33 4 18 4 28 10 21 14 -11 7 -70 210 -70 241 0 11 15 20 44 28 25 6 49 11 54 11 9 0 48 -153 46 -177 -1 -9 7 -11 25 -7 14 4 27 7 28 8 1 1 -9 39 -23 86 -13 46 -24 89 -24 96 0 11 97 41 104 33 9 -11 64 -243 60 -251 -6 -9 12 -10 44 -1 13 3 19 9 14 12 -5 3 -26 71 -47 151 -39 150 -50 181 -56 162z" fill="#f0f0e9"/>
<path d="M2381 6234 c0 -11 3 -14 6 -6 3 7 2 16 -1 19 -3 4 -6 -2 -5 -13z" fill="#f0f0e9"/>
<path d="M2371 6194 c0 -11 3 -14 6 -6 3 7 2 16 -1 19 -3 4 -6 -2 -5 -13z" fill="#f0f0e9"/>
<path d="M2347 6103 c-90 -374 -87 -893 8 -1318 50 -221 183 -582 270 -731 29 -50 51 -68 43 -36 -4 12 -2 20 3 16 5 -3 9 -13 10 -22 0 -14 2 -13 8 3 5 11 5 25 1 30 -13 18 -20 46 -10 40 6 -3 10 -13 10 -21 0 -8 5 -14 10 -14 16 0 13 7 -54 124 -180 314 -295 672 -336 1048 -13 125 -13 421 1 568 6 63 22 173 35 244 27 138 28 179 1 69z" fill="#f0f0e9"/>
<path d="M6000 6015 c0 -9 -9 -15 -22 -15 -13 0 -32 -7 -42 -15 -14 -10 -45 -15 -97 -15 -52 0 -79 -4 -81 -12 -3 -8 -14 -3 -32 15 -29 29 -46 35 -46 15 0 -9 -3 -9 -12 0 -20 20 -33 13 -48 -25 -7 -21 -15 -32 -17 -25 -7 18 -83 16 -83 -2 0 -8 12 -17 28 -19 15 -2 10 -3 -11 -2 -29 3 -43 -2 -63 -22 -21 -21 -32 -24 -74 -21 -42 2 -50 0 -50 -14 0 -16 10 -18 77 -18 42 0 73 -3 70 -7 -4 -3 -36 -5 -72 -4 -40 1 -65 -2 -65 -8 0 -6 -18 -11 -40 -11 -36 0 -40 -2 -40 -25 0 -18 -5 -25 -20 -25 -11 0 -20 -7 -20 -15 0 -8 -9 -15 -20 -15 -11 0 -20 -4 -20 -10 0 -5 9 -10 20 -10 11 0 20 5 20 10 0 6 9 10 20 10 11 0 20 -4 20 -10 0 -5 -9 -10 -20 -10 -11 0 -20 -7 -20 -15 0 -8 -9 -15 -20 -15 -17 0 -20 -7 -20 -40 0 -27 4 -40 14 -40 9 0 15 -20 20 -61 10 -99 10 -97 -31 -102 -35 -3 -34 -4 10 -5 60 -2 62 -22 2 -22 -25 0 -45 -4 -45 -10 0 -5 20 -10 45 -10 54 0 61 -19 8 -22 -37 -1 -37 -1 -5 -5 26 -4 32 -9 32 -29 0 -26 -26 -62 -32 -45 -2 6 -17 6 -38 1 -24 -5 -28 -8 -12 -9 19 -1 22 -7 24 -43 l1 -43 7 45 c6 37 7 39 8 14 3 -49 14 -94 23 -94 5 0 9 9 9 20 0 11 4 20 10 20 14 0 12 -267 -2 -276 -7 -4 -6 -9 3 -15 12 -8 11 -11 -1 -19 -9 -6 -10 -10 -3 -10 8 0 9 -10 1 -36 -8 -29 -7 -40 6 -52 20 -20 31 -10 17 17 -14 25 -4 71 14 71 9 0 12 12 8 43 -3 31 -2 38 6 27 6 -8 11 -28 11 -45 0 -16 9 -45 20 -63 24 -39 24 -42 6 -42 -14 0 -26 -29 -26 -62 0 -10 7 -18 15 -18 8 0 15 7 15 15 0 8 5 15 10 15 6 0 10 11 10 25 0 14 5 25 10 25 6 0 10 -8 10 -17 0 -10 3 -28 6 -40 5 -17 2 -23 -10 -23 -23 0 -20 -17 5 -25 11 -4 21 -5 22 -3 25 48 55 68 42 28 -8 -25 10 -66 40 -92 13 -11 37 -17 68 -18 26 0 47 -4 47 -10 0 -5 18 -10 40 -10 29 0 40 -4 40 -15 0 -11 11 -15 40 -15 29 0 40 -4 40 -15 0 -11 11 -15 40 -15 22 0 40 -4 40 -10 0 -6 60 -10 160 -10 100 0 160 4 160 10 0 6 22 10 49 10 31 0 53 5 61 15 7 8 27 15 45 15 20 0 35 6 39 15 3 9 20 22 38 30 46 20 71 42 64 54 -6 9 19 71 28 71 2 0 1 -11 -2 -25 -5 -30 17 -35 25 -5 3 11 12 20 19 20 17 0 18 26 2 34 -10 5 -10 7 0 12 6 3 12 12 12 20 0 8 5 14 10 14 14 0 12 -28 -2 -33 -7 -2 -10 -7 -7 -11 11 -12 39 6 39 25 0 12 7 19 20 19 13 0 20 7 20 20 0 11 -4 20 -10 20 -5 0 -10 -4 -10 -10 0 -5 -4 -10 -10 -10 -5 0 -10 12 -10 28 0 20 7 30 28 40 19 9 28 9 31 1 2 -8 6 -7 13 2 7 11 11 11 15 2 8 -20 23 -15 23 7 0 11 -6 20 -14 20 -9 0 -12 7 -9 20 3 11 0 20 -6 20 -6 0 -11 -10 -11 -22 0 -34 -7 -18 -14 34 -6 41 -5 47 8 42 11 -4 16 -1 16 10 0 9 -4 16 -10 16 -5 0 -10 7 -10 15 0 20 16 19 24 -1 7 -18 26 -9 26 12 0 8 -4 12 -10 9 -6 -3 -10 5 -10 19 0 13 7 26 15 28 12 3 12 8 -3 37 -12 26 -13 36 -4 39 17 5 15 73 -4 100 -19 28 -34 28 -34 1 0 -18 -4 -16 -25 15 -14 20 -25 39 -25 41 0 12 24 3 36 -12 13 -17 13 -17 15 2 0 11 0 36 -1 56 -1 21 3 40 9 44 14 8 14 25 1 25 -5 0 -10 -7 -10 -15 0 -8 -9 -15 -20 -15 -17 0 -20 7 -20 39 0 33 4 40 23 44 12 2 3 5 -21 6 -52 1 -47 20 6 23 37 1 37 1 -8 8 -43 7 -44 7 -9 8 67 3 51 17 -33 28 -60 8 -71 12 -40 13 30 1 42 5 42 16 0 11 -11 15 -36 15 -44 0 -69 24 -65 62 1 15 -2 28 -8 28 -6 0 -11 7 -11 15 0 8 -9 15 -20 15 -11 0 -20 5 -20 10 0 6 -9 10 -20 10 -11 0 -20 5 -20 10 0 6 9 10 20 10 34 0 22 17 -17 25 -24 4 -39 3 -41 -4 -5 -14 -82 -15 -82 -1 0 6 18 10 40 10 33 0 40 3 40 20 0 17 -7 20 -40 20 -36 0 -40 3 -40 24 0 40 -52 76 -111 76 -37 0 -49 4 -49 15 0 20 -16 19 -24 -1 -3 -8 -11 -12 -17 -9 -6 4 -8 13 -5 20 5 13 -12 35 -26 35 -4 0 -8 -7 -8 -15z m-560 -225 c0 -5 -18 -10 -40 -10 -22 0 -40 5 -40 10 0 6 18 10 40 10 22 0 40 -4 40 -10z m1190 -754 c0 -11 -19 -15 -25 -6 -3 5 1 10 9 10 9 0 16 -2 16 -4z m-30 -36 c0 -5 -4 -10 -10 -10 -5 0 -10 5 -10 10 0 6 5 10 10 10 6 0 10 -4 10 -10z m25 -30 c3 -5 -1 -10 -10 -10 -9 0 -13 5 -10 10 3 6 8 10 10 10 2 0 7 -4 10 -10z m-1025 -315 c0 -8 -7 -15 -16 -15 -8 0 -22 7 -30 15 -14 13 -12 15 15 15 21 0 31 -5 31 -15z m800 -25 c0 -5 -7 -10 -15 -10 -8 0 -15 5 -15 10 0 6 7 10 15 10 8 0 15 -4 15 -10z m-160 -55 c0 -11 -11 -15 -40 -15 -29 0 -40 4 -40 15 0 11 11 15 40 15 29 0 40 -4 40 -15z" fill="#f0f0e9"/>
<path d="M6240 5935 c0 -9 9 -15 21 -15 18 0 19 2 9 15 -7 8 -16 15 -21 15 -5 0 -9 -7 -9 -15z" fill="#f0f0e9"/>
<path d="M8880 5888 l0 -38 80 0 80 0 0 -68 0 -67 -67 -43 c-49 -31 -69 -39 -75 -29 -4 7 -8 -8 -8 -36 l0 -48 75 51 c41 27 76 50 79 50 3 0 12 -15 20 -34 24 -59 111 -69 158 -19 20 21 23 37 27 115 1 49 0 113 -3 141 l-7 52 -172 -6 c-122 -5 -174 -3 -179 5 -4 6 -8 -6 -8 -26z m322 -115 c6 -107 -5 -137 -48 -141 -54 -5 -64 16 -64 129 l0 99 54 0 54 0 4 -87z" fill="#f0f0e9"/>
<path d="M5300 5860 c0 -11 6 -20 14 -20 9 0 12 7 9 20 -3 11 -9 20 -14 20 -5 0 -9 -9 -9 -20z" fill="#f0f0e9"/>
<path d="M6480 5720 c0 -32 1 -33 24 -24 29 11 14 54 -20 54 -2 0 -4 -13 -4 -30z" fill="#f0f0e9"/>
<path d="M6560 5700 c0 -17 -7 -20 -42 -22 l-43 -1 38 -4 c27 -3 45 1 58 13 23 21 24 34 4 34 -8 0 -15 -9 -15 -20z" fill="#f0f0e9"/>
<path d="M6685 5500 c3 -5 8 -10 11 -10 2 0 4 5 4 10 0 6 -5 10 -11 10 -5 0 -7 -4 -4 -10z" fill="#f0f0e9"/>
<path d="M6720 5470 c0 -5 5 -10 11 -10 5 0 7 5 4 10 -3 6 -8 10 -11 10 -2 0 -4 -4 -4 -10z" fill="#f0f0e9"/>
<path d="M6728 5283 c7 -3 16 -2 19 1 4 3 -2 6 -13 5 -11 0 -14 -3 -6 -6z" fill="#f0f0e9"/>
<path d="M5138 5193 c7 -3 16 -2 19 1 4 3 -2 6 -13 5 -11 0 -14 -3 -6 -6z" fill="#f0f0e9"/>
<path d="M6740 5190 c0 -5 5 -10 10 -10 6 0 10 5 10 10 0 6 -4 10 -10 10 -5 0 -10 -4 -10 -10z" fill="#f0f0e9"/>
<path d="M6687 4954 c6 -15 23 -19 23 -5 0 5 -7 11 -14 14 -10 4 -13 1 -9 -9z" fill="#f0f0e9"/>
<path d="M6480 4650 c0 -5 5 -10 10 -10 6 0 10 5 10 10 0 6 -4 10 -10 10 -5 0 -10 -4 -10 -10z" fill="#f0f0e9"/>
<path d="M5301 3380 c-164 -21 -342 -74 -691 -205 -69 -26 -174 -60 -235 -76 -60 -15 -101 -28 -90 -29 33 0 191 45 345 100 80 28 195 69 255 90 286 101 555 134 775 95 105 -18 145 -32 343 -112 88 -35 161 -63 162 -61 5 5 -243 111 -320 138 -168 59 -373 81 -544 60z" fill="#f0f0e9"/>
<path d="M5365 3310 c-113 -10 -194 -24 -315 -56 -124 -33 -493 -155 -486 -161 2 -3 74 18 158 45 349 114 499 148 696 158 209 11 349 -15 606 -111 82 -30 151 -53 153 -51 7 6 -317 125 -395 146 -82 21 -234 41 -292 38 -19 0 -75 -4 -125 -8z" fill="#f0f0e9"/>
<path d="M5435 3243 c-188 -11 -337 -42 -656 -136 -170 -51 -369 -100 -444 -110 l-30 -4 28 -2 c48 -2 217 36 440 100 402 116 583 146 802 136 147 -7 240 -25 415 -82 74 -25 136 -43 137 -41 6 6 -191 74 -289 100 -89 24 -269 48 -326 44 -15 -1 -49 -3 -77 -5z" fill="#f0f0e9"/>
<path d="M5390 3170 c-131 -12 -254 -36 -505 -100 -284 -72 -403 -98 -486 -109 -52 -7 -57 -9 -23 -10 53 -1 235 36 504 103 281 71 432 96 615 103 182 7 304 -10 502 -68 75 -22 137 -38 139 -36 6 6 -222 75 -305 92 -148 31 -283 39 -441 25z" fill="#f0f0e9"/>
<path d="M6190 3170 c8 -5 20 -10 25 -10 6 0 3 5 -5 10 -8 5 -19 10 -25 10 -5 0 -3 -5 5 -10z" fill="#f0f0e9"/>
<path d="M5390 3099 c-118 -12 -248 -35 -510 -92 -278 -61 -357 -75 -480 -86 -108 -9 -267 0 -330 19 -50 15 -62 11 -17 -5 21 -8 88 -20 148 -26 170 -18 330 3 794 105 229 50 339 66 515 73 175 6 292 -5 448 -43 57 -14 106 -24 108 -21 5 4 -167 50 -256 67 -77 16 -307 20 -420 9z" fill="#f0f0e9"/>
<path d="M4485 3075 c-39 -14 -40 -14 -5 -8 41 7 82 22 60 22 -8 0 -33 -7 -55 -14z" fill="#f0f0e9"/>
<path d="M4223 3063 c9 -2 23 -2 30 0 6 3 -1 5 -18 5 -16 0 -22 -2 -12 -5z" fill="#f0f0e9"/>
<path d="M4088 3053 c18 -2 45 -2 60 0 15 2 0 4 -33 4 -33 0 -45 -2 -27 -4z" fill="#f0f0e9"/>
<path d="M4408 3053 c6 -2 18 -2 25 0 6 3 1 5 -13 5 -14 0 -19 -2 -12 -5z" fill="#f0f0e9"/>
<path d="M4358 3043 c6 -2 18 -2 25 0 6 3 1 5 -13 5 -14 0 -19 -2 -12 -5z" fill="#f0f0e9"/>
<path d="M6158 3043 c7 -3 16 -2 19 1 4 3 -2 6 -13 5 -11 0 -14 -3 -6 -6z" fill="#f0f0e9"/>
<path d="M4308 3033 c6 -2 18 -2 25 0 6 3 1 5 -13 5 -14 0 -19 -2 -12 -5z" fill="#f0f0e9"/>
<path d="M5465 3034 c-128 -11 -307 -38 -515 -79 -333 -65 -444 -78 -645 -73 -111 3 -158 1 -135 -5 19 -5 109 -9 200 -9 171 0 271 12 550 67 311 60 513 85 700 85 117 0 173 -5 360 -35 35 -5 35 -5 5 5 -97 32 -376 56 -520 44z" fill="#f0f0e9"/>
<path d="M4233 3023 c9 -2 25 -2 35 0 9 3 1 5 -18 5 -19 0 -27 -2 -17 -5z" fill="#f0f0e9"/>
<path d="M4068 2993 c7 -3 16 -2 19 1 4 3 -2 6 -13 5 -11 0 -14 -3 -6 -6z" fill="#f0f0e9"/>
<path d="M4163 2983 c26 -2 68 -2 95 0 26 2 4 3 -48 3 -52 0 -74 -1 -47 -3z" fill="#f0f0e9"/>
<path d="M6028 2973 c7 -3 16 -2 19 1 4 3 -2 6 -13 5 -11 0 -14 -3 -6 -6z" fill="#f0f0e9"/>
<path d="M5460 2959 c-113 -8 -178 -16 -590 -78 -378 -57 -592 -59 -775 -6 -48 14 -89 24 -91 22 -8 -8 152 -50 231 -62 188 -28 363 -16 844 60 306 47 452 59 656 51 93 -3 188 -8 210 -11 l40 -4 -35 9 c-41 10 -276 31 -334 29 -23 -1 -93 -5 -156 -10z" fill="#f0f0e9"/>
<path d="M6068 2963 c6 -2 18 -2 25 0 6 3 1 5 -13 5 -14 0 -19 -2 -12 -5z" fill="#f0f0e9"/>
<path d="M4113 2953 c9 -2 25 -2 35 0 9 3 1 5 -18 5 -19 0 -27 -2 -17 -5z" fill="#f0f0e9"/>
<path d="M4208 2943 c23 -2 59 -2 80 0 20 2 1 4 -43 4 -44 0 -61 -2 -37 -4z" fill="#f0f0e9"/>
<path d="M5998 2923 c7 -3 16 -2 19 1 4 3 -2 6 -13 5 -11 0 -14 -3 -6 -6z" fill="#f0f0e9"/>
<path d="M4108 2893 c7 -3 16 -2 19 1 4 3 -2 6 -13 5 -11 0 -14 -3 -6 -6z" fill="#f0f0e9"/>
<path d="M5575 2893 c-141 -7 -335 -26 -548 -53 -332 -43 -514 -54 -665 -40 -112 10 -260 41 -336 70 -16 6 -31 9 -33 6 -7 -7 172 -62 252 -77 48 -10 141 -14 295 -13 192 1 260 6 465 33 351 47 519 61 714 61 96 0 172 2 170 4 -6 5 -247 13 -314 9z" fill="#f0f0e9"/>
<path d="M5918 2873 c12 -2 30 -2 40 0 9 3 -1 5 -23 4 -22 0 -30 -2 -17 -4z" fill="#f0f0e9"/>
<path d="M6008 2863 c7 -3 16 -2 19 1 4 3 -2 6 -13 5 -11 0 -14 -3 -6 -6z" fill="#f0f0e9"/>
<path d="M3990 2850 c8 -5 20 -10 25 -10 6 0 3 5 -5 10 -8 5 -19 10 -25 10 -5 0 -3 -5 5 -10z" fill="#f0f0e9"/>
<path d="M3917 2839 c7 -7 15 -10 18 -7 3 3 -2 9 -12 12 -14 6 -15 5 -6 -5z" fill="#f0f0e9"/>
<path d="M3970 2835 c14 -8 30 -14 35 -14 6 0 -1 6 -15 14 -14 8 -29 14 -35 14 -5 0 1 -6 15 -14z" fill="#f0f0e9"/>
<path d="M4065 2821 c54 -24 182 -57 280 -72 150 -24 457 -15 780 21 160 17 389 38 510 45 l220 14 -210 -5 c-125 -3 -325 -18 -495 -36 -337 -35 -639 -46 -773 -29 -106 14 -256 47 -303 67 -49 20 -56 16 -9 -5z" fill="#f0f0e9"/>
<path d="M3893 2807 c14 -11 15 -16 5 -21 -7 -3 -3 -3 9 -1 12 3 24 1 28 -5 3 -5 0 -10 -7 -10 -7 -1 -2 -7 12 -15 30 -17 44 -19 35 -5 -4 6 14 0 40 -12 25 -12 41 -24 36 -26 -6 -2 -9 -8 -6 -13 4 -5 -1 -6 -10 -2 -12 4 -13 8 -5 13 8 5 7 9 -5 14 -23 9 -27 8 -19 -5 3 -6 -32 9 -80 34 -56 30 -86 40 -86 32 0 -9 -8 -12 -21 -10 -18 4 -19 2 -8 -11 7 -8 18 -13 26 -10 9 4 11 1 7 -6 -5 -8 -2 -9 10 -5 10 4 15 3 11 -3 -3 -5 3 -14 14 -19 26 -14 34 -14 25 1 -4 7 -3 8 5 4 6 -4 9 -11 6 -16 -7 -11 166 -104 327 -177 340 -152 759 -250 1136 -265 117 -5 62 8 -85 20 -168 13 -391 49 -538 87 -177 46 -554 179 -542 191 2 2 48 -14 103 -36 316 -124 745 -203 1073 -199 l106 2 -149 8 c-251 14 -559 63 -777 124 -109 31 -333 111 -369 132 -15 8 -17 11 -5 7 394 -143 588 -183 980 -205 143 -8 240 -9 305 -2 92 9 90 10 -95 11 -385 3 -738 59 -1055 167 -129 45 -274 105 -267 112 2 2 33 -10 68 -26 166 -75 418 -144 649 -177 134 -18 699 -30 795 -16 42 6 9 7 -115 4 -317 -8 -709 25 -940 79 -148 34 -460 142 -447 155 1 2 48 -14 104 -36 185 -73 412 -122 653 -142 143 -11 699 -3 820 12 69 9 48 8 -320 -5 -161 -6 -507 8 -645 26 -141 18 -317 58 -440 100 -111 38 -319 128 -312 135 2 2 52 -18 113 -45 201 -90 394 -140 615 -161 214 -21 602 -13 1004 20 91 8 87 8 -40 4 -77 -3 -259 -9 -405 -14 -568 -19 -857 23 -1198 173 -56 25 -99 41 -96 36 7 -12 -2 -11 -29 2 -20 9 -21 9 -4 -4z m62 -107 c3 -6 -1 -7 -9 -4 -18 7 -21 14 -7 14 6 0 13 -4 16 -10z m155 -55 c17 -9 30 -18 30 -21 0 -4 -59 23 -69 32 -10 9 13 3 39 -11z" fill="#f0f0e9"/>
<path d="M3975 2811 c19 -19 215 -92 313 -117 190 -49 286 -58 582 -57 165 0 355 7 475 17 110 9 268 21 350 25 l150 8 -110 1 c-60 1 -245 -7 -410 -18 -659 -43 -970 -14 -1290 122 -38 16 -65 25 -60 19z" fill="#f0f0e9"/>
<path d="M4041 2806 c42 -24 171 -65 274 -86 223 -46 514 -48 925 -5 140 14 436 33 600 39 52 2 -15 2 -150 -1 -135 -2 -312 -10 -395 -17 -305 -29 -610 -40 -762 -27 -203 16 -286 34 -498 106 -11 3 -9 0 6 -9z" fill="#f0f0e9"/>
<path d="M5898 2813 c12 -2 32 -2 45 0 12 2 2 4 -23 4 -25 0 -35 -2 -22 -4z" fill="#f0f0e9"/>
</g>
</svg>